<?xml version="1.0" encoding="UTF-8" standalone="no"?>
<svg
   xmlns:dc="http://purl.org/dc/elements/1.1/"
   xmlns:cc="http://creativecommons.org/ns#"
   xmlns:rdf="http://www.w3.org/1999/02/22-rdf-syntax-ns#"
   xmlns:svg="http://www.w3.org/2000/svg"
   xmlns="http://www.w3.org/2000/svg"
   xmlns:sodipodi="http://sodipodi.sourceforge.net/DTD/sodipodi-0.dtd"
   xmlns:inkscape="http://www.inkscape.org/namespaces/inkscape"
   width="1004.3951"
   height="501.81055"
   viewBox="0 0 265.74644 132.77072"
   version="1.1"
   id="svg8"
   inkscape:version="1.0 (4035a4fb49, 2020-05-01)"
   sodipodi:docname="Indonesia_Financial_Group.svg">
  <defs
     id="defs2" />
  <sodipodi:namedview
     id="base"
     pagecolor="#ffffff"
     bordercolor="#666666"
     borderopacity="1.0"
     inkscape:pageopacity="0.0"
     inkscape:pageshadow="2"
     inkscape:zoom="0.35355339"
     inkscape:cx="-231.12772"
     inkscape:cy="151.98041"
     inkscape:document-units="mm"
     inkscape:current-layer="layer1"
     inkscape:document-rotation="0"
     showgrid="false"
     showguides="true"
     inkscape:guide-bbox="true"
     units="px"
     inkscape:window-width="1366"
     inkscape:window-height="715"
     inkscape:window-x="-8"
     inkscape:window-y="-8"
     inkscape:window-maximized="1">
    <sodipodi:guide
       position="-98.46776,196.18303"
       orientation="1,0"
       id="guide865" />
    <sodipodi:guide
       position="-193.56661,143.42047"
       orientation="1,0"
       id="guide867" />
    <sodipodi:guide
       position="-98.40357,-153.44512"
       orientation="0,-1"
       id="guide869" />
    <sodipodi:guide
       position="-193.56661,-5.0123364"
       orientation="1,0"
       id="guide871" />
    <sodipodi:guide
       position="-193.56662,285.49829"
       orientation="0,-1"
       id="guide873" />
    <sodipodi:guide
       id="guide844"
       orientation="1,0"
       position="33.22067,106.85021" />
    <sodipodi:guide
       id="guide846"
       orientation="0,-1"
       position="0,132.72626" />
  </sodipodi:namedview>
  <metadata
     id="metadata5">
    <rdf:RDF>
      <cc:Work
         rdf:about="">
        <dc:format>image/svg+xml</dc:format>
        <dc:type
           rdf:resource="http://purl.org/dc/dcmitype/StillImage" />
        <dc:title></dc:title>
      </cc:Work>
    </rdf:RDF>
  </metadata>
  <g
     inkscape:label="Layer 1"
     inkscape:groupmode="layer"
     id="layer1"
     transform="translate(-664.17137,-19.077499)">
    <path
       style="fill:#ea0b2a;fill-opacity:1;stroke-width:0.830763"
       d="m 874.90069,150.66337 c -17.62512,-3.18475 -32.08303,-13.83115 -39.5333,-29.11123 -7.14356,-14.65105 -6.75341,-35.025808 0.94936,-49.578328 15.02289,-25.848449 46.98225,-32.36152 67.92137,-26.00643 8.69292,2.40508 17.16482,7.032424 23.43907,12.802368 l 2.24038,2.060303 -6.39418,8.251609 c -3.51681,4.538386 -7.00766,9.041321 -7.75737,10.006522 -1.36156,1.752802 -1.36808,1.7506 -5.40001,-1.834804 -6.71708,-6.442424 -15.95976,-8.545835 -21.89823,-8.555107 -24.98497,-0.932073 -36.04885,23.178939 -27.56934,41.864567 3.0838,6.2195 7.21193,10.37657 13.25899,13.35194 5.239,2.5778 6.06014,2.73291 14.29582,2.70027 6.2661,-0.0248 9.61876,-0.42405 11.85292,-1.41144 l 3.11539,-1.37683 v -5.85775 -5.85772 h -6.53527 -6.53524 l -9.2432,-11.63071 -9.24317,-11.630683 h 28.65525 28.65533 l -0.006,24.715223 -0.006,24.71524 -3.52925,2.19383 c -9.13049,5.67566 -16.80774,8.53649 -27.62144,10.29276 -9.0543,1.47053 -14.54542,1.44594 -23.12087,-0.10363 z M 697.39201,105.40862 V 61.321558 l 2.2846,1.660897 c 1.25654,0.913493 7.51842,5.895375 13.9153,11.070849 l 12.04609,9.746748 -0.19816,32.679418 0.21722,33.01621 h -14.13252 -14.13253 z m 48.18435,-7.835685 V 45.650177 H 790.853 c 24.90215,0 45.27665,0.190802 45.27665,0.424004 0,0.233202 -3.9578,5.461067 -8.79511,11.617478 l -8.7951,11.193475 -22.56624,0.220912 -22.56624,0.220912 v 9.553789 9.553791 l 19.43504,0.415379 19.43506,0.415384 -9.05051,11.421389 -9.0505,11.4214 -10.59224,0.002 -10.59225,0.002 v 18.69218 18.69219 H 759.28395 745.57636 Z M 713.59191,58.373814 c -5.93996,-4.822203 -11.92146,-9.653593 -13.29223,-10.736425 l -2.49228,-1.968787 13.91529,-0.0091 13.91531,-0.0091 c 0.0362,4.847489 0.0874,9.810637 0.0279,14.292196 -0.0319,2.399071 -0.0622,4.843848 -0.0279,7.683177 -0.3427,-0.02987 -6.10611,-4.429536 -12.04608,-9.251737 z m -26.01958,-5.256975 -9.40432,-7.466662 h 9.612 9.612 l -0.0102,7.536417 c -0.0102,7.306441 0.0371,7.840466 0.0102,7.426968 -0.11417,-0.0056 -4.64732,-3.390058 -9.81968,-7.496723 z M 680.8786,32.225524 664.17137,19.122015 c 1.36663,-2.8e-5 2.7363,-1.6e-5 4.10754,-2e-6 1.51177,1.5e-5 3.02545,8.11e-4 4.53905,2e-6 2.96139,-0.0016 5.92919,-7.65e-4 8.87689,-2e-6 2.77209,7.18e-4 5.52641,0.0014 8.24092,-3.6e-5 2.52763,-0.0013 5.01935,-0.01005 7.45624,3.6e-5 0.001,0.394106 0.002,0.784282 0.002,1.170914 0.001,2.017552 -0.006,3.928867 -0.002,5.742283 0.0129,6.148809 -0.10432,11.825535 -1.5e-4,18.962802 z"
       id="path863"
       sodipodi:nodetypes="csccscsscccssscccccccccccssccccssccccccccsssccccccccccccccccsscccccssscccscsccsssscsscc" />
  </g>
</svg>
